<?xml version="1.0" encoding="UTF-8" standalone="no"?>
<!DOCTYPE svg PUBLIC "-//W3C//DTD SVG 1.1//EN" "http://www.w3.org/Graphics/SVG/1.1/DTD/svg11.dtd">
<svg width="100%" height="100%" viewBox="0 0 2481 3508" version="1.1" xmlns="http://www.w3.org/2000/svg" xmlns:xlink="http://www.w3.org/1999/xlink" xml:space="preserve" xmlns:serif="http://www.serif.com/" style="fill-rule:evenodd;clip-rule:evenodd;stroke-linejoin:round;stroke-miterlimit:2;">
    <g transform="matrix(0,-4.166667,-4.166667,0,1162.060417,1415.227917)">
        <path d="M-23.73,-46.724C-40.495,-46.724 -67.779,-30.953 -67.779,-11.496C-67.779,7.959 -40.495,23.73 -23.73,23.73C-6.966,23.73 -2.675,7.959 -2.675,-11.496C-2.675,-30.953 -6.966,-46.724 -23.73,-46.724" style="fill:rgb(93,208,238);fill-rule:nonzero;"/>
    </g>
    <g transform="matrix(4.16666,0.007404,0.007404,-4.16666,1209.739167,1660.0444)">
        <path d="M0.054,-0C-13.19,-0.024 -26.167,22.123 -26.19,34.978C-26.197,38.877 -26.128,60.735 0.054,60.781C26.236,60.828 26.167,38.97 26.174,35.071C26.197,22.216 13.298,0.023 0.054,-0" style="fill:rgb(169,239,255);fill-rule:nonzero;"/>
    </g>
    <g transform="matrix(4.166667,0,0,4.166667,1136.677917,1638.224167)">
        <path d="M0,12.299C-1.802,12.299 -3.263,10.838 -3.263,9.036L-3.263,3.263C-3.263,1.461 -1.802,0 0,0C1.802,0 3.263,1.461 3.263,3.263L3.263,9.036C3.263,10.838 1.802,12.299 0,12.299" style="fill:rgb(251,147,37);fill-rule:nonzero;"/>
    </g>
    <g transform="matrix(4.166667,0,0,4.166667,1163.872917,1638.224167)">
        <path d="M0,12.299C-1.802,12.299 -3.263,10.838 -3.263,9.036L-3.263,3.263C-3.263,1.461 -1.802,0 0,0C1.802,0 3.263,1.461 3.263,3.263L3.263,9.036C3.263,10.838 1.802,12.299 0,12.299" style="fill:rgb(251,147,37);fill-rule:nonzero;"/>
    </g>
    <g transform="matrix(4.166667,0,0,4.166667,1256.057083,1638.224167)">
        <path d="M0,12.299C-1.802,12.299 -3.263,10.838 -3.263,9.036L-3.263,3.263C-3.263,1.461 -1.802,0 0,0C1.802,0 3.263,1.461 3.263,3.263L3.263,9.036C3.263,10.838 1.802,12.299 0,12.299" style="fill:rgb(251,147,37);fill-rule:nonzero;"/>
    </g>
    <g transform="matrix(4.166667,0,0,4.166667,1283.252083,1638.224167)">
        <path d="M0,12.299C-1.802,12.299 -3.263,10.838 -3.263,9.036L-3.263,3.263C-3.263,1.461 -1.802,0 0,0C1.802,0 3.263,1.461 3.263,3.263L3.263,9.036C3.263,10.838 1.802,12.299 0,12.299" style="fill:rgb(251,147,37);fill-rule:nonzero;"/>
    </g>
    <g transform="matrix(-4.166667,0,0,4.166667,1182.43125,1505.605417)">
        <path d="M0,0.933C2.113,0.933 3.995,-0.047 5.221,-1.577C4.639,0.769 2.526,2.51 0,2.51C-2.526,2.51 -4.639,0.769 -5.221,-1.577C-3.995,-0.047 -2.113,0.933 0,0.933" style="fill:rgb(93,208,238);fill-rule:nonzero;"/>
    </g>
    <g transform="matrix(-4.166667,0,0,4.166667,1237.4975,1505.605417)">
        <path d="M0,0.933C2.113,0.933 3.995,-0.047 5.221,-1.577C4.639,0.769 2.526,2.51 0,2.51C-2.526,2.51 -4.639,0.769 -5.221,-1.577C-3.995,-0.047 -2.113,0.933 0,0.933" style="fill:rgb(93,208,238);fill-rule:nonzero;"/>
    </g>
    <g transform="matrix(-4.166667,0,0,4.166667,1154.897917,1539.283333)">
        <path d="M0,0.933C2.113,0.933 3.995,-0.047 5.221,-1.577C4.639,0.769 2.526,2.51 0,2.51C-2.526,2.51 -4.639,0.769 -5.221,-1.577C-3.995,-0.047 -2.113,0.933 0,0.933" style="fill:rgb(93,208,238);fill-rule:nonzero;"/>
    </g>
    <g transform="matrix(-4.166667,0,0,4.166667,1209.964583,1539.283333)">
        <path d="M0,0.933C2.113,0.933 3.995,-0.047 5.221,-1.577C4.639,0.769 2.526,2.51 0,2.51C-2.526,2.51 -4.639,0.769 -5.221,-1.577C-3.995,-0.047 -2.113,0.933 0,0.933" style="fill:rgb(93,208,238);fill-rule:nonzero;"/>
    </g>
    <g transform="matrix(-4.166667,0,0,4.166667,1265.030833,1539.283333)">
        <path d="M0,0.933C2.113,0.933 3.995,-0.047 5.221,-1.577C4.639,0.769 2.526,2.51 0,2.51C-2.526,2.51 -4.639,0.769 -5.221,-1.577C-3.995,-0.047 -2.113,0.933 0,0.933" style="fill:rgb(93,208,238);fill-rule:nonzero;"/>
    </g>
    <g transform="matrix(-4.166667,0,0,4.166667,1182.43125,1572.960833)">
        <path d="M0,0.933C2.113,0.933 3.995,-0.047 5.221,-1.577C4.639,0.769 2.526,2.51 0,2.51C-2.526,2.51 -4.639,0.769 -5.221,-1.577C-3.995,-0.047 -2.113,0.933 0,0.933" style="fill:rgb(93,208,238);fill-rule:nonzero;"/>
    </g>
    <g transform="matrix(-4.166667,0,0,4.166667,1237.4975,1572.960833)">
        <path d="M0,0.933C2.113,0.933 3.995,-0.047 5.221,-1.577C4.639,0.769 2.526,2.51 0,2.51C-2.526,2.51 -4.639,0.769 -5.221,-1.577C-3.995,-0.047 -2.113,0.933 0,0.933" style="fill:rgb(93,208,238);fill-rule:nonzero;"/>
    </g>
    <g transform="matrix(-4.166667,0,0,4.166667,1209.964583,1606.63875)">
        <path d="M0,0.933C2.113,0.933 3.995,-0.047 5.221,-1.577C4.639,0.769 2.526,2.51 0,2.51C-2.526,2.51 -4.639,0.769 -5.221,-1.577C-3.995,-0.047 -2.113,0.933 0,0.933" style="fill:rgb(93,208,238);fill-rule:nonzero;"/>
    </g>
    <g transform="matrix(4.166667,0,0,4.166667,1349.238333,1642.23625)">
        <path d="M0,-48.403C-0.018,-35.027 -10.739,-14.99 -25.616,-7.372C-27.745,-6.281 -26.77,-3.038 -24.399,-3.358C-23.532,-3.475 -22.668,-3.629 -21.808,-3.808C-21.779,-2.655 -20.86,-1.536 -19.422,-1.73C-18.554,-1.847 -17.69,-2.001 -16.83,-2.18C-16.802,-1.027 -15.883,0.091 -14.444,-0.103C1.286,-2.224 13.039,-16.106 14.802,-27.17C17.18,-42.087 0,-48.494 0,-48.403" style="fill:rgb(52,150,173);fill-rule:nonzero;"/>
    </g>
    <g transform="matrix(4.166667,0,0,4.166667,1300.396667,1554.684583)">
        <path d="M0,17.302C2.979,15.13 8.751,10.337 13.346,2.973C4.457,12.743 -0.971,15.689 -4.69,16.632C-5.285,16.783 -5.67,16.024 -5.192,15.641C-1.967,13.055 4.741,7.334 6.971,2.809C1.462,9.189 -6.662,14.63 -11.938,15.392C-13.144,15.566 -13.987,14.792 -14.245,13.861C-15.899,15.11 -14.905,17.955 -12.677,17.655C-11.81,17.538 -10.946,17.383 -10.086,17.204C-10.057,18.357 -9.138,19.476 -7.7,19.282C-6.832,19.165 -5.969,19.011 -5.108,18.832C-5.08,19.985 -4.161,21.104 -2.722,20.91C11.909,18.937 23.095,6.79 26.005,-3.802C22.461,5.595 12.859,15.547 0.421,18.227C-0.127,18.345 -0.453,17.632 0,17.302" style="fill:rgb(35,127,142);fill-rule:nonzero;"/>
    </g>
    <g transform="matrix(4.166667,0,0,4.166667,1070.690417,1642.23625)">
        <path d="M0,-48.403C0.018,-35.027 10.739,-14.99 25.616,-7.372C27.745,-6.281 26.77,-3.038 24.399,-3.358C23.532,-3.475 22.668,-3.629 21.808,-3.808C21.779,-2.655 20.86,-1.536 19.422,-1.73C18.554,-1.847 17.69,-2.001 16.83,-2.18C16.802,-1.027 15.883,0.091 14.444,-0.103C-1.286,-2.224 -13.039,-16.106 -14.802,-27.17C-17.18,-42.087 0,-48.494 0,-48.403" style="fill:rgb(52,150,173);fill-rule:nonzero;"/>
    </g>
    <g transform="matrix(4.166667,0,0,4.166667,1119.531667,1554.684583)">
        <path d="M0,17.302C-2.979,15.13 -8.751,10.337 -13.346,2.973C-4.457,12.743 0.971,15.689 4.69,16.632C5.285,16.783 5.67,16.024 5.192,15.641C1.967,13.055 -4.741,7.334 -6.971,2.809C-1.462,9.189 6.662,14.63 11.938,15.392C13.144,15.566 13.987,14.792 14.245,13.861C15.899,15.11 14.905,17.955 12.677,17.655C11.81,17.538 10.946,17.383 10.086,17.204C10.057,18.357 9.138,19.476 7.7,19.282C6.832,19.165 5.969,19.011 5.108,18.832C5.08,19.985 4.161,21.104 2.722,20.91C-11.909,18.937 -23.095,6.79 -26.005,-3.802C-22.461,5.595 -12.859,15.547 -0.421,18.227C0.127,18.345 0.453,17.632 0,17.302" style="fill:rgb(35,127,142);fill-rule:nonzero;"/>
    </g>
    <g transform="matrix(-4.166667,0,0,4.166667,1114.904583,1499.035417)">
        <path d="M0,-57.131C15.751,-57.131 28.565,-44.317 28.565,-28.566C28.565,-12.815 15.751,0 0,0C-15.751,0 -28.565,-12.815 -28.565,-28.566C-28.565,-44.317 -15.751,-57.131 0,-57.131" style="fill:rgb(93,208,238);fill-rule:nonzero;"/>
    </g>
    <g transform="matrix(-4.166667,0,0,4.166667,1305.024167,1499.035417)">
        <path d="M0,-57.131C15.751,-57.131 28.565,-44.317 28.565,-28.566C28.565,-12.815 15.751,0 0,0C-15.751,0 -28.565,-12.815 -28.565,-28.566C-28.565,-44.317 -15.751,-57.131 0,-57.131" style="fill:rgb(93,208,238);fill-rule:nonzero;"/>
    </g>
    <g transform="matrix(-4.166667,0,0,4.166667,1114.904583,1479.1975)">
        <path d="M0,-47.609C13.126,-47.609 23.804,-36.93 23.804,-23.805C23.804,-10.679 13.126,0 0,0C-13.126,0 -23.804,-10.679 -23.804,-23.805C-23.804,-36.93 -13.126,-47.609 0,-47.609" style="fill:rgb(169,239,255);fill-rule:nonzero;"/>
    </g>
    <g transform="matrix(0,-4.166667,-4.166667,0,1114.905,1299.6725)">
        <path d="M-19.282,-19.282C-29.931,-19.282 -38.563,-10.649 -38.563,0C-38.563,10.649 -29.931,19.282 -19.282,19.282C-8.633,19.282 0,10.649 0,0C0,-10.649 -8.633,-19.282 -19.282,-19.282" style="fill:rgb(247,249,184);fill-rule:nonzero;"/>
    </g>
    <g transform="matrix(4.166667,0,0,4.166667,1114.904583,1317.52375)">
        <path d="M0,29.994C-8.269,29.994 -14.997,23.266 -14.997,14.997C-14.997,6.728 -8.269,0 0,0C8.269,0 14.997,6.728 14.997,14.997C14.997,23.266 8.269,29.994 0,29.994" style="fill:rgb(246,198,2);fill-rule:nonzero;"/>
    </g>
    <g transform="matrix(4.166667,0,0,4.166667,1114.904583,1353.23375)">
        <path d="M0,12.854C-3.544,12.854 -6.427,9.971 -6.427,6.427C-6.427,2.883 -3.544,0 0,0C3.544,0 6.427,2.883 6.427,6.427C6.427,9.971 3.544,12.854 0,12.854" style="fill:rgb(102,82,0);fill-rule:nonzero;"/>
    </g>
    <g transform="matrix(4.166667,0,0,4.166667,-517,72)">
        <g opacity="0.4">
            <g transform="matrix(0.707107,0.707107,0.707107,-0.707107,378.589441,307.3119)">
                <path d="M5.316,-2.202C2.959,-2.202 1.04,1.17 1.041,5.316C1.04,9.462 2.959,12.834 5.316,12.834C7.673,12.834 9.592,9.462 9.591,5.316C9.592,1.17 7.673,-2.202 5.316,-2.202" style="fill:rgb(254,252,240);fill-rule:nonzero;"/>
            </g>
        </g>
    </g>
    <g transform="matrix(4.166667,0,0,4.166667,-517,72)">
        <g opacity="0.4">
            <g transform="matrix(1,0,0,1,399.0027,318.6043)">
                <path d="M0,4.841C-1.335,4.841 -2.42,3.755 -2.42,2.421C-2.42,1.086 -1.335,0 0,0C1.335,0 2.42,1.086 2.42,2.421C2.42,3.755 1.335,4.841 0,4.841" style="fill:rgb(254,252,240);fill-rule:nonzero;"/>
            </g>
        </g>
    </g>
    <g transform="matrix(-4.166667,0,0,4.166667,1305.024167,1479.1975)">
        <path d="M0,-47.609C13.126,-47.609 23.804,-36.93 23.804,-23.805C23.804,-10.679 13.126,0 0,0C-13.126,0 -23.804,-10.679 -23.804,-23.805C-23.804,-36.93 -13.126,-47.609 0,-47.609" style="fill:rgb(169,239,255);fill-rule:nonzero;"/>
    </g>
    <g transform="matrix(0,-4.166667,-4.166667,0,1305.024583,1299.6725)">
        <path d="M-19.282,-19.282C-29.931,-19.282 -38.563,-10.649 -38.563,0C-38.563,10.649 -29.931,19.282 -19.282,19.282C-8.633,19.282 0,10.649 0,0C0,-10.649 -8.633,-19.282 -19.282,-19.282" style="fill:rgb(247,249,184);fill-rule:nonzero;"/>
    </g>
    <g transform="matrix(4.166667,0,0,4.166667,1305.024167,1317.52375)">
        <path d="M0,29.994C-8.269,29.994 -14.997,23.266 -14.997,14.997C-14.997,6.728 -8.269,0 0,0C8.269,0 14.997,6.728 14.997,14.997C14.997,23.266 8.269,29.994 0,29.994" style="fill:rgb(246,198,2);fill-rule:nonzero;"/>
    </g>
    <g transform="matrix(4.166667,0,0,4.166667,1305.024167,1353.23375)">
        <path d="M0,12.854C-3.544,12.854 -6.427,9.971 -6.427,6.427C-6.427,2.883 -3.544,0 0,0C3.544,0 6.427,2.883 6.427,6.427C6.427,9.971 3.544,12.854 0,12.854" style="fill:rgb(102,82,0);fill-rule:nonzero;"/>
    </g>
    <g transform="matrix(4.166667,0,0,4.166667,-517,72)">
        <g opacity="0.4">
            <g transform="matrix(0.707107,0.707107,0.707107,-0.707107,423.742141,307.3119)">
                <path d="M5.316,-2.202C2.959,-2.202 1.04,1.17 1.041,5.316C1.04,9.462 2.959,12.834 5.316,12.834C7.673,12.834 9.592,9.462 9.591,5.316C9.592,1.17 7.673,-2.202 5.316,-2.202" style="fill:rgb(254,252,240);fill-rule:nonzero;"/>
            </g>
        </g>
    </g>
    <g transform="matrix(4.166667,0,0,4.166667,-517,72)">
        <g opacity="0.4">
            <g transform="matrix(1,0,0,1,444.1554,318.6043)">
                <path d="M0,4.841C-1.335,4.841 -2.42,3.755 -2.42,2.421C-2.42,1.086 -1.335,0 0,0C1.335,0 2.42,1.086 2.42,2.421C2.42,3.755 1.335,4.841 0,4.841" style="fill:rgb(254,252,240);fill-rule:nonzero;"/>
            </g>
        </g>
    </g>
    <g transform="matrix(4.166667,0,0,4.166667,1387.950833,1470.132917)">
        <path d="M0,-53.983C5.265,-55.104 9.81,-54.722 9.81,-54.722C0.912,-60.919 -7.694,-60.407 -15.2,-57C-19.985,-54.829 -24.765,-52.646 -29.606,-50.604C-33.957,-48.77 -38.607,-47.349 -42.717,-46.289C-46.827,-47.349 -51.477,-48.77 -55.827,-50.604C-60.669,-52.646 -65.449,-54.829 -70.233,-57C-77.739,-60.407 -86.346,-60.919 -95.243,-54.722C-95.243,-54.722 -90.699,-55.104 -85.434,-53.983C-91.167,-52.208 -96.522,-48.499 -100.916,-41.961C-100.916,-41.961 -83.966,-50.253 -72.299,-42.548C-62.814,-36.284 -63.805,-28.274 -55.871,-26.089C-51.335,-24.84 -47.913,-21.106 -47.056,-16.48L-42.717,6.936L-38.378,-16.48C-37.521,-21.106 -34.098,-24.84 -29.563,-26.089C-21.629,-28.274 -22.62,-36.284 -13.135,-42.548C-1.468,-50.253 15.482,-41.961 15.482,-41.961C11.088,-48.499 5.733,-52.208 0,-53.983" style="fill:rgb(52,150,173);fill-rule:nonzero;"/>
    </g>
    <g transform="matrix(4.166667,0,0,4.166667,1232.935833,1486.6975)">
        <path d="M0,-10.836L-1.992,-12.828C-3.937,-14.773 -7.089,-14.773 -9.034,-12.828L-11.026,-10.836C-12.601,-9.261 -12.938,-6.831 -11.851,-4.886L-8.012,1.983C-6.919,3.937 -4.107,3.937 -3.014,1.983L0.825,-4.886C1.912,-6.831 1.575,-9.261 0,-10.836" style="fill:rgb(251,147,37);fill-rule:nonzero;"/>
    </g>
    <g transform="matrix(1.54902,0,0,1.54902,102,-2)">
        <g>
            <g transform="matrix(0.223446,0,0,0.223446,586.387247,624.038822)">
                <path d="M806.217,529.078L566.192,610.466C563.989,611.227 561.665,611.601 559.354,611.601C557.035,611.601 554.693,611.227 552.49,610.466L312.478,529.078L312.478,730.367L312.732,730.367L312.188,733.133C312.188,757.08 422.861,810.545 559.208,810.545C695.549,810.545 805.933,757.08 805.933,733.133L805.37,730.367L806.217,730.367L806.217,529.078Z" style="fill:rgb(52,150,173);fill-rule:nonzero;"/>
            </g>
            <g transform="matrix(0.223446,0,0,0.223446,586.387247,624.038822)">
                <path d="M312.478,489.302L559.354,573.014L806.217,489.302L913.629,452.867L935.054,445.605L946.334,441.78L559.354,311.455L172.355,441.78L312.478,489.302Z" style="fill:rgb(52,150,173);fill-rule:nonzero;"/>
            </g>
        </g>
    </g>
</svg>
