<?xml version="1.0" encoding="UTF-8" standalone="no"?>
<!DOCTYPE svg PUBLIC "-//W3C//DTD SVG 1.1//EN" "http://www.w3.org/Graphics/SVG/1.1/DTD/svg11.dtd">
<svg width="100%" height="100%" viewBox="0 0 2481 3508" version="1.1" xmlns="http://www.w3.org/2000/svg" xmlns:xlink="http://www.w3.org/1999/xlink" xml:space="preserve" xmlns:serif="http://www.serif.com/" style="fill-rule:evenodd;clip-rule:evenodd;stroke-linejoin:round;stroke-miterlimit:2;">
    <g transform="matrix(1.54902,0,0,1.54902,102,-2)">
        <g transform="matrix(1,0,0,1,19.713549,281.947168)">
            <g transform="matrix(-12.273749,0,0,12.273749,435.252802,1387.133873)">
                <path d="M0,-57.131C15.751,-57.131 28.565,-44.317 28.565,-28.566C28.565,-12.815 15.751,0 0,0C-15.751,0 -28.565,-12.815 -28.565,-28.566C-28.565,-44.317 -15.751,-57.131 0,-57.131" style="fill:rgb(38,39,132);fill-rule:nonzero;"/>
            </g>
            <g transform="matrix(-12.273749,0,0,12.273749,995.287977,1387.133873)">
                <path d="M0,-57.131C15.751,-57.131 28.565,-44.317 28.565,-28.566C28.565,-12.815 15.751,0 0,0C-15.751,0 -28.565,-12.815 -28.565,-28.566C-28.565,-44.317 -15.751,-57.131 0,-57.131" style="fill:rgb(38,39,132);fill-rule:nonzero;"/>
            </g>
            <g transform="matrix(-12.273749,0,0,12.273749,435.252802,1328.69733)">
                <path d="M0,-47.609C13.126,-47.609 23.804,-36.93 23.804,-23.805C23.804,-10.679 13.126,0 0,0C-13.126,0 -23.804,-10.679 -23.804,-23.805C-23.804,-36.93 -13.126,-47.609 0,-47.609" style="fill:white;fill-rule:nonzero;"/>
            </g>
            <g transform="matrix(12.273749,0,0,12.273749,435.252802,957.645967)">
                <path d="M0,12.854C-3.544,12.854 -6.427,9.971 -6.427,6.427C-6.427,2.883 -3.544,0 0,0C3.544,0 6.427,2.883 6.427,6.427C6.427,9.971 3.544,12.854 0,12.854" style="fill:rgb(38,39,132);fill-rule:nonzero;"/>
            </g>
            <g transform="matrix(12.273749,0,0,12.273749,-4371.84781,-2816.483726)">
                <g opacity="0.4">
                    <g transform="matrix(1,0,0,1,399.0027,318.6043)">
                        <path d="M0,4.841C-1.335,4.841 -2.42,3.755 -2.42,2.421C-2.42,1.086 -1.335,0 0,0C1.335,0 2.42,1.086 2.42,2.421C2.42,3.755 1.335,4.841 0,4.841" style="fill:rgb(254,252,240);fill-rule:nonzero;"/>
                    </g>
                </g>
            </g>
            <g transform="matrix(-12.273749,0,0,12.273749,995.287977,1328.69733)">
                <path d="M0,-47.609C13.126,-47.609 23.804,-36.93 23.804,-23.805C23.804,-10.679 13.126,0 0,0C-13.126,0 -23.804,-10.679 -23.804,-23.805C-23.804,-36.93 -13.126,-47.609 0,-47.609" style="fill:rgb(246,247,247);fill-rule:nonzero;"/>
            </g>
            <g transform="matrix(12.273749,0,0,12.273749,995.287977,957.645967)">
                <path d="M0,12.854C-3.544,12.854 -6.427,9.971 -6.427,6.427C-6.427,2.883 -3.544,0 0,0C3.544,0 6.427,2.883 6.427,6.427C6.427,9.971 3.544,12.854 0,12.854" style="fill:rgb(38,39,132);fill-rule:nonzero;"/>
            </g>
            <g transform="matrix(12.273749,0,0,12.273749,-4371.84781,-2816.483726)">
                <g opacity="0.4">
                    <g transform="matrix(1,0,0,1,444.1554,318.6043)">
                        <path d="M0,4.841C-1.335,4.841 -2.42,3.755 -2.42,2.421C-2.42,1.086 -1.335,0 0,0C1.335,0 2.42,1.086 2.42,2.421C2.42,3.755 1.335,4.841 0,4.841" style="fill:rgb(254,252,240);fill-rule:nonzero;"/>
                    </g>
                </g>
            </g>
            <g transform="matrix(12.273749,0,0,12.273749,1239.56502,1301.995792)">
                <path d="M0,-53.983C5.265,-55.104 9.81,-54.722 9.81,-54.722C0.912,-60.919 -7.694,-60.407 -15.2,-57C-19.985,-54.829 -24.765,-52.646 -29.606,-50.604C-33.957,-48.77 -38.607,-47.349 -42.717,-46.289C-46.827,-47.349 -51.477,-48.77 -55.827,-50.604C-60.669,-52.646 -65.449,-54.829 -70.233,-57C-77.739,-60.407 -86.346,-60.919 -95.243,-54.722C-95.243,-54.722 -90.699,-55.104 -85.434,-53.983C-91.167,-52.208 -96.522,-48.499 -100.916,-41.961C-100.916,-41.961 -83.966,-50.253 -72.299,-42.548C-62.814,-36.284 -63.805,-28.274 -55.871,-26.089C-51.335,-24.84 -47.913,-21.106 -47.056,-16.48L-42.717,6.936L-38.378,-16.48C-37.521,-21.106 -34.098,-24.84 -29.563,-26.089C-21.629,-28.274 -22.62,-36.284 -13.135,-42.548C-1.468,-50.253 15.482,-41.961 15.482,-41.961C11.088,-48.499 5.733,-52.208 0,-53.983" style="fill:rgb(38,39,132);fill-rule:nonzero;"/>
            </g>
            <g transform="matrix(12.273749,0,0,12.273749,782.937403,1350.790076)">
                <path d="M0,-10.836L-1.992,-12.828C-3.937,-14.773 -7.089,-14.773 -9.034,-12.828L-11.026,-10.836C-12.601,-9.261 -12.938,-6.831 -11.851,-4.886L-8.012,1.983C-6.919,3.937 -4.107,3.937 -3.014,1.983L0.825,-4.886C1.912,-6.831 1.575,-9.261 0,-10.836" style="fill:rgb(251,37,37);fill-rule:nonzero;"/>
            </g>
            <g transform="matrix(4.562948,0,0,4.562948,-2539.622684,-2854.777821)">
                <g transform="matrix(0.223446,0,0,0.223446,586.387247,624.038822)">
                    <path d="M806.217,529.078L566.192,610.466C563.989,611.227 561.665,611.601 559.354,611.601C557.035,611.601 554.693,611.227 552.49,610.466L312.478,529.078L312.478,730.367L312.732,730.367L312.188,733.133C312.188,757.08 422.861,810.545 559.208,810.545C695.549,810.545 805.933,757.08 805.933,733.133L805.37,730.367L806.217,730.367L806.217,529.078Z" style="fill:rgb(38,39,132);fill-rule:nonzero;"/>
                </g>
                <g transform="matrix(0.223446,0,0,0.223446,586.387247,624.038822)">
                    <path d="M312.478,489.302L559.354,573.014L806.217,489.302L913.629,452.867L935.054,445.605L946.334,441.78L559.354,311.455L172.355,441.78L312.478,489.302Z" style="fill:rgb(38,39,132);fill-rule:nonzero;"/>
                </g>
            </g>
        </g>
    </g>
</svg>
